WalkerModelTerrain_states
version=1
nRows=31
nColumns=13
inDegrees=yes

# SIMM Motion File Header:
name WalkerModelTerrain_states
datacolumns 13
datarows 31
otherdata 1
range 0.49580458 0.51547416
endheader
time	Pelvis_tx	Pelvis_ty	LHip_rz	RHip_rz	LKnee_rz	RKnee_rz	Pelvis_tx_u	Pelvis_ty_u	LHip_rz_u	RHip_rz_u	LKnee_rz_u	RKnee_rz_u
      0.49580458	     -0.02874361	      0.38748629	    102.80109389	     55.35651530	   -104.87809518	   -138.26238882	     -0.56873598	     -1.20791280	    132.38888089	    119.21766368	    -38.33667726	   -130.56555882
      0.49599179	     -0.02884988	      0.38726007	    102.82589178	     55.37872533	   -104.88529950	   -138.28850038	     -0.56655475	     -1.20885521	    132.52971176	    118.28716186	    -38.62806434	   -147.81895287
      0.49623412	     -0.02898684	      0.38696697	    102.85803198	     55.40739328	   -104.89470528	   -138.32659018	     -0.56389086	     -1.21012194	    132.72966887	    118.48225743	    -38.99461184	   -165.83311458
      0.49647645	     -0.02912319	      0.38667358	    102.89021989	     55.43619538	   -104.90419532	   -138.36857369	     -0.56148067	     -1.21122780	    132.92029571	    119.27685747	    -39.32068083	   -180.11928051
      0.49678395	     -0.02929542	      0.38630096	    102.93112627	     55.47305361	   -104.91634154	   -138.42621874	     -0.55879602	     -1.21228129	    133.13290770	    120.45102928	    -39.66741992	   -194.13473074
      0.49716864	     -0.02950982	      0.38583444	    102.98238498	     55.51964699	   -104.93166986	   -138.50348809	     -0.55594868	     -1.21303668	    133.35186897	    121.73454537	    -40.00899227	   -206.81923528
      0.49764832	     -0.02977577	      0.38525249	    103.04640547	     55.57833006	   -104.95094218	   -138.60541436	     -0.55300444	     -1.21321837	    133.56811053	    122.85036715	    -40.32940060	   -217.35214806
      0.49812801	     -0.03004043	      0.38467063	    103.11051904	     55.63742655	   -104.97034834	   -138.71139079	     -0.55052619	     -1.21272472	    133.74339420	    123.47576578	    -40.57306877	   -223.99032591
      0.49875200	     -0.03038307	      0.38391430	    103.19403579	     55.71458516	   -104.99574616	   -138.85288262	     -0.54774630	     -1.21130078	    133.93614024	    123.74335961	    -40.82053929	   -228.96652837
      0.49937599	     -0.03072408	      0.38315909	    103.27766451	     55.79176815	   -105.02128193	   -138.99660737	     -0.54527775	     -1.20917549	    134.10371392	    123.58188626	    -41.01883733	   -231.35746876
      0.50019291	     -0.03116830	      0.38217272	    103.38729438	     55.89248779	   -105.05487861	   -139.18605240	     -0.54232924	     -1.20552507	    134.28834984	    122.93409400	    -41.22363740	   -232.08244993
      0.50118444	     -0.03170438	      0.38098006	    103.52052929	     56.01379908	   -105.09584389	   -139.41562335	     -0.53901569	     -1.19996641	    134.44252945	    121.69262701	    -41.39195623	   -230.65035501
      0.50196616	     -0.03212475	      0.38004399	    103.62565053	     56.10846822	   -105.12823106	   -139.59512489	     -0.53650908	     -1.19484318	    134.49513587	    120.49729825	    -41.46093946	   -228.53548300
      0.50294867	     -0.03265033	      0.37887351	    103.75778824	     56.22608642	   -105.16898192	   -139.81828309	     -0.53335309	     -1.18766438	    134.46505668	    118.91415726	    -41.47860438	   -225.70720340
      0.50381607	     -0.03311175	      0.37784631	    103.87437354	     56.32860414	   -105.20493806	   -140.01294511	     -0.53056165	     -1.18069957	    134.33492382	    117.45757794	    -41.41348992	   -223.12221985
      0.50458854	     -0.03352063	      0.37693679	    103.97807102	     56.41882230	   -105.23688656	   -140.18439059	     -0.52807646	     -1.17404228	    134.13229090	    116.11815306	    -41.29457704	   -220.74935515
      0.50536102	     -0.03392760	      0.37603258	    104.08158007	     56.50799242	   -105.26871832	   -140.35395612	     -0.52560147	     -1.16696940	    133.84682099	    114.74555464	    -41.10882573	   -218.23213963
      0.50613349	     -0.03433267	      0.37513400	    104.18483578	     56.59609264	   -105.30038212	   -140.52146368	     -0.52315014	     -1.15945622	    133.47587699	    113.35013438	    -40.86107632	   -215.38197859
      0.50690597	     -0.03473586	      0.37424140	    104.28777107	     56.68311059	   -105.33182742	   -140.68655629	     -0.52074189	     -1.15145311	    133.01674435	    111.94611188	    -40.54008874	   -211.93029078
      0.50767845	     -0.03513721	      0.37335520	    104.39031641	     56.76904592	   -105.36299717	   -140.84865075	     -0.51839656	     -1.14289630	    132.46556600	    110.55003330	    -40.14957964	   -207.56655494
      0.50845092	     -0.03553677	      0.37247584	    104.49239941	     56.85391166	   -105.39383468	   -141.00692123	     -0.51613577	     -1.13372241	    131.81933617	    109.17986144	    -39.67551259	   -201.98050219
      0.50911215	     -0.03587744	      0.37172894	    104.57935711	     56.92572548	   -105.41991854	   -141.13857099	     -0.51428021	     -1.12534046	    131.18816340	    108.04035953	    -39.21051687	   -196.02531588
      0.50977337	     -0.03621690	      0.37098775	    104.66587349	     56.99679880	   -105.44567391	   -141.26588849	     -0.51250797	     -1.11645259	    130.48453163	    106.94138841	    -38.68046817	   -188.86232296
      0.51043460	     -0.03655523	      0.37025260	    104.75190062	     57.06716069	   -105.47105920	   -141.38805379	     -0.51082282	     -1.10706100	    129.70843207	    105.88931245	    -38.09199233	   -180.43866966
      0.51122208	     -0.03695673	      0.36938542	    104.85364936	     57.15007389	   -105.50075466	   -141.52567197	     -0.50893018	     -1.09525410	    128.69197206	    104.70171521	    -37.31211093	   -168.79543144
      0.51200955	     -0.03735680	      0.36852778	    104.95455951	     57.23207945	   -105.52980479	   -141.65348205	     -0.50715371	     -1.08284771	    127.57937773	    103.58313339	    -36.45633981	   -155.56881660
      0.51266796	     -0.03769024	      0.36781835	    105.03823266	     57.29998444	   -105.55355577	   -141.75198308	     -0.50574750	     -1.07209746	    126.57974681	    102.69443307	    -35.68155045	   -143.51067819
      0.51332636	     -0.03802278	      0.36711609	    105.12122791	     57.36731573	   -105.57678185	   -141.84231097	     -0.50440012	     -1.06108787	    125.52092229	    101.83874779	    -34.86374564	   -130.78224093
      0.51405479	     -0.03838968	      0.36634766	    105.21221591	     57.44116150	   -105.60183379	   -141.93229469	     -0.50296223	     -1.04871005	    124.28845775	    100.91748534	    -33.91103029	   -116.22337327
      0.51478323	     -0.03875554	      0.36558828	    105.30228601	     57.51434124	   -105.62617769	   -142.01159230	     -0.50156067	     -1.03623894	    123.00266903	    100.00735384	    -32.92297183	   -101.49858237
      0.51547416	     -0.03910163	      0.36487639	    105.38684053	     57.58314101	   -105.64859391	   -142.07692938	     -0.50024862	     -1.02442320	    121.74527663	     99.14002329	    -31.95917942	    -87.67201314
